<svg xmlns="http://www.w3.org/2000/svg" viewBox="0 0 400 300" preserveAspectRatio="xMidYMid slice"><defs><pattern id="cn5k" width="46" height="46" patternUnits="userSpaceOnUse"><rect width="46" height="46" fill="#F7F8F6"/><path d="M0 1H46M1 0V46" stroke="#CFE0EE" stroke-width="3"/></pattern></defs><rect width="400" height="300" fill="url(#cn5k)"/><rect y="190" width="400" height="18" fill="#8A5A34"/><rect y="208" width="400" height="92" fill="#F4F1EA" stroke="#1C1F2E" stroke-width="3"/><rect x="60" y="130" width="70" height="60" rx="6" fill="#FFCF33" stroke="#1C1F2E" stroke-width="3"/><path d="M270 190V140Q270 120 290 120H310" fill="none" stroke="#9CA3AA" stroke-width="10"/><path d="M200 70Q203.6 86.4 220 90Q203.6 93.6 200 110Q196.4 93.6 180 90Q196.4 86.4 200 70Z" fill="#F2C14E"/><path d="M250 50Q251.8 58.2 260 60Q251.8 61.8 250 70Q248.2 61.8 240 60Q248.2 58.2 250 50Z" fill="#FFFFFF"/><path d="M330 96Q332.52 107.48 344 110Q332.52 112.52 330 124Q327.48 112.52 316 110Q327.48 107.48 330 96Z" fill="#FFFFFF"/></svg>
